<svg id="Layer_1" enable-background="new 0 0 512 512" height="512" viewBox="0 0 512 512" width="512" xmlns="http://www.w3.org/2000/svg"><g><g><path d="m493.014 164.384-63.956-93.027c-3.166-4.606-8.397-7.357-13.985-7.357h-318.146c-5.589 0-10.819 2.751-13.985 7.356l-63.956 93.027c-1.945 2.829-2.986 6.181-2.986 9.615v6.086c0 3.941 1.372 7.76 3.88 10.8l207.029 250.944c3.224 3.909 8.025 6.172 13.091 6.172h32c5.066 0 9.867-2.263 13.091-6.171l207.029-250.944c2.508-3.04 3.88-6.859 3.88-10.8v-6.086c0-3.434-1.041-6.786-2.986-9.615z" fill="#cd3232"/></g><g><g><path d="m240 432c-.291 0-.563-.128-.749-.353l-207.029-250.944c-.143-.173-.222-.393-.222-.618v-6.086c0-.197.059-.387.17-.549l63.957-93.029c.181-.264.48-.421.8-.421h286.145c.32 0 .619.157.801.421l63.956 93.028c.112.163.171.353.171.55v6.086c0 .225-.079.445-.223.619l-207.027 250.943c-.186.224-.459.353-.75.353z" fill="#32283c"/></g><g><path d="m375.167 96 55.34 80.495-190.507 230.918-190.507-230.918 55.34-80.495zm7.906-32h-286.146c-5.588 0-10.819 2.751-13.985 7.356l-63.956 93.027c-1.945 2.829-2.986 6.181-2.986 9.615v6.086c0 3.941 1.372 7.76 3.88 10.8l207.029 250.944c3.224 3.909 8.025 6.172 13.091 6.172s9.867-2.263 13.091-6.171l207.029-250.944c2.508-3.04 3.88-6.859 3.88-10.8v-6.086c0-3.433-1.041-6.786-2.986-9.615l-63.956-93.027c-3.167-4.606-8.397-7.357-13.985-7.357z" fill="#ff4646"/></g></g><g fill="#e6e6eb"><path d="m126.5 120h-2.334c-12.59 0-22.833 10.243-22.833 22.833 0 8.704 4.836 16.53 12.622 20.422l15.601 7.801c2.33 1.165 3.777 3.507 3.777 6.111 0 3.768-3.065 6.833-6.833 6.833h-2.334c-3.768 0-6.833-3.065-6.833-6.833v-1.167c0-4.418-3.582-8-8-8s-8 3.582-8 8v1.167c0 12.59 10.243 22.833 22.833 22.833h2.334c12.59 0 22.833-10.243 22.833-22.833 0-8.705-4.836-16.53-12.622-20.422l-15.601-7.801c-2.33-1.165-3.777-3.507-3.777-6.111 0-3.768 3.065-6.833 6.833-6.833h2.334c3.768 0 6.833 3.065 6.833 6.833v1.167c0 4.418 3.582 8 8 8s8-3.582 8-8v-1.167c0-12.59-10.242-22.833-22.833-22.833z"/><path d="m200 120c-4.418 0-8 3.582-8 8v48c0 4.411-3.589 8-8 8s-8-3.589-8-8v-48c0-4.418-3.582-8-8-8s-8 3.582-8 8v48c0 13.234 10.767 24 24 24s24-10.766 24-24v-48c0-4.418-3.582-8-8-8z"/><path d="m242.667 120h-16c-4.418 0-8 3.582-8 8v64c0 4.418 3.582 8 8 8s8-3.582 8-8v-24h8c13.234 0 24-10.766 24-24s-10.767-24-24-24zm0 32h-8v-16h8c4.412 0 8 3.589 8 8s-3.589 8-8 8z"/><path d="m314.667 136c4.418 0 8-3.582 8-8s-3.582-8-8-8h-32c-4.418 0-8 3.582-8 8v64c0 4.418 3.582 8 8 8h32c4.418 0 8-3.582 8-8s-3.582-8-8-8h-24v-16h10.666c4.418 0 8-3.582 8-8s-3.582-8-8-8h-10.666v-16z"/><path d="m366.146 165.071c7.454-4.077 12.521-11.993 12.521-21.071 0-13.234-10.767-24-24-24h-16c-4.418 0-8 3.582-8 8v64c0 4.418 3.582 8 8 8s8-3.582 8-8v-24h3.056l13.789 27.578c1.401 2.803 4.227 4.424 7.161 4.424 1.202 0 2.424-.272 3.572-.846 3.951-1.976 5.553-6.781 3.577-10.733zm-19.479-29.071h8c4.411 0 8 3.589 8 8s-3.589 8-8 8h-8z"/></g><g><g><path d="m195.373 416h284.627c8.837 0 16-7.163 16-16v-160c0-8.837-7.163-16-16-16h-284.627c-7.198 0-14.017 3.231-18.575 8.802l-59.732 73.006c-3.276 4.004-5.066 9.019-5.066 14.192 0 5.173 1.79 10.188 5.066 14.192l59.732 73.006c4.558 5.571 11.377 8.802 18.575 8.802z" fill="#a5c3dc"/></g><g><path d="m195.373 416h260.627c8.837 0 16-7.163 16-16v-160c0-8.837-7.163-16-16-16h-260.627c-7.198 0-14.017 3.231-18.575 8.802l-59.732 73.006c-3.276 4.004-5.066 9.019-5.066 14.192 0 5.173 1.79 10.188 5.066 14.192l59.732 73.006c4.558 5.571 11.377 8.802 18.575 8.802z" fill="#e6e6eb"/></g><g><circle cx="152" cy="320" fill="#32283c" r="24"/></g><g fill="#ff4646"><path d="m220 256c-15.439 0-28 12.561-28 28v14.459c0 11.516 6.909 21.721 17.601 25.997l14.855 5.943c4.583 1.833 7.543 6.206 7.543 11.141v14.46c0 6.617-5.383 12-12 12s-12-5.383-12-12v-4c0-4.418-3.582-8-8-8s-8 3.582-8 8v4c0 15.439 12.561 28 28 28s28-12.561 28-28v-14.459c0-11.516-6.909-21.72-17.601-25.997l-14.855-5.943c-4.583-1.833-7.543-6.206-7.543-11.142v-14.459c0-6.617 5.383-12 12-12s12 5.383 12 12v4c0 4.418 3.582 8 8 8s8-3.582 8-8v-4c0-15.439-12.561-28-28-28z"/><path d="m292 256c-15.439 0-28 12.561-28 28v92c0 4.418 3.582 8 8 8s8-3.582 8-8v-48h24v48c0 4.418 3.582 8 8 8s8-3.582 8-8v-92c0-15.439-12.561-28-28-28zm-12 56v-28c0-6.617 5.383-12 12-12s12 5.383 12 12v28z"/><path d="m384 368h-24c-4.411 0-8-3.589-8-8v-96c0-4.418-3.582-8-8-8s-8 3.582-8 8v96c0 13.234 10.767 24 24 24h24c4.418 0 8-3.582 8-8s-3.582-8-8-8z"/><path d="m448 368h-24c-4.411 0-8-3.589-8-8v-32h16c4.418 0 8-3.582 8-8s-3.582-8-8-8h-16v-32c0-4.411 3.589-8 8-8h24c4.418 0 8-3.582 8-8s-3.582-8-8-8h-24c-13.233 0-24 10.766-24 24v80c0 13.234 10.767 24 24 24h24c4.418 0 8-3.582 8-8s-3.582-8-8-8z"/></g></g><path d="m152 312h-72c-13.233 0-24-10.766-24-24v-53.334l-16-19.394v72.728c0 22.056 17.944 40 40 40h72c4.418 0 8-3.582 8-8s-3.582-8-8-8z" fill="#cd3232"/></g></svg>